<svg width="369" height="83" viewBox="0 0 369 83" fill="none" xmlns="http://www.w3.org/2000/svg">
<line x1="73.0372" y1="82.6919" x2="73.0372" y2="0.685799" stroke="#A68555" stroke-width="2"/>
<path fill-rule="evenodd" clip-rule="evenodd" d="M22.4807 7.54158C22.5187 7.48933 22.5594 7.43287 22.6029 7.3726C23.1495 6.6154 24.1302 5.25648 25.514 4.07797C27.2147 2.62972 29.4151 1.55505 31.9954 2.26916C32.27 2.34513 32.5534 2.18187 32.6286 1.90451C32.7038 1.62716 32.5422 1.34073 32.2677 1.26476C29.6652 0.544524 27.4273 1.39197 25.6908 2.62551C25.779 2.52602 25.8688 2.42635 25.9603 2.3265L25.3912 2.84558C25.2044 2.98756 25.0238 3.13348 24.8498 3.28169C24.4047 3.66075 23.9956 4.0609 23.6269 4.45527L14.585 12.7041L14.5787 12.7096C14.4783 12.7262 14.3817 12.7728 14.3032 12.8499L14.3021 12.8509L3.5971 23.3788C2.23529 24.6377 0.682856 26.6136 0.172215 29.0719C-0.346646 31.5698 0.228563 34.4791 2.97764 37.5166L15.0781 50.8865L15.081 50.8899L23.1395 59.7937C24.9939 61.8428 27.1398 64.7252 27.7931 68.1457C28.4371 71.5171 27.6474 75.5015 23.4596 79.8349C23.4261 79.864 23.3923 79.8931 23.3583 79.922C21.6577 81.3703 19.4572 82.445 16.8769 81.7309C16.6024 81.6549 16.319 81.8182 16.2437 82.0955C16.1686 82.3729 16.3301 82.6593 16.6047 82.7352C19.6491 83.5778 22.1947 82.2749 24.0225 80.7184C24.0589 80.6874 24.095 80.6563 24.1309 80.6251C24.1399 80.6177 24.1489 80.61 24.1576 80.6019L24.163 80.5969C24.3511 80.4322 24.5324 80.264 24.7067 80.0946L35.491 70.13C35.8646 69.8141 36.2623 69.4194 36.6512 68.9559L45.7761 60.0589C48.101 57.9937 51.4499 52.3476 46.2458 46.284L34.3724 32.4491L26.4532 23.2218C23.5075 19.7896 19.633 14.266 22.4807 7.54158ZM10.9458 25.1851C10.424 22.9725 10.5063 20.5261 11.7717 17.9473C11.3914 20.3475 11.9593 23.2599 14.585 26.3193L26.4585 40.1541L34.3776 49.3815C36.9963 52.4327 40.3263 57.3696 39.0246 63.2348C39.1494 61.0066 38.41 58.5039 36.1249 55.9789L24.0245 42.609L24.0212 42.6054L15.9631 33.7018C14.1013 31.6448 11.7669 28.6661 10.9458 25.1851ZM4.31021 24.1307L10.6598 17.8862C9.47031 20.5313 9.3906 23.0833 9.94329 25.4265C10.8285 29.1797 13.3189 32.3233 15.2025 34.4046L23.2639 43.3118L23.2673 43.3155L35.3643 56.6818C37.9074 59.4915 38.3078 62.1657 37.835 64.3591C37.3547 66.5869 35.9586 68.3796 34.8217 69.3381L34.8093 69.3488L34.804 69.3537L27.5085 76.0946C29.0282 73.1938 29.2818 70.4441 28.805 67.9483C28.0965 64.2389 25.791 61.1803 23.9001 59.091L15.8387 50.1838L15.8356 50.1805L3.73823 36.8138C1.18619 33.994 0.737977 31.4181 1.1809 29.2858C1.63129 27.1175 3.02198 25.3205 4.29839 24.1421L4.31021 24.1307Z" fill="#A68555"/>
<path d="M105.169 37.3658C103.702 37.3658 102.262 37.1658 100.849 36.7658C99.4355 36.3658 98.2755 35.7925 97.3688 35.0458C96.4888 34.2991 96.0488 33.4458 96.0488 32.4858V28.2058H96.7688C97.2221 30.8725 98.1021 32.8058 99.4088 34.0058C100.715 35.1791 102.515 35.7658 104.809 35.7658C106.249 35.7658 107.475 35.4058 108.489 34.6858C109.529 33.9658 110.049 32.9658 110.049 31.6858C110.049 30.5658 109.702 29.5925 109.009 28.7658C108.315 27.9391 107.195 27.0725 105.649 26.1658L100.729 23.2458C99.0221 22.2325 97.8088 21.2058 97.0888 20.1658C96.3955 19.1258 96.0488 17.8591 96.0488 16.3658C96.0488 14.3125 96.7555 12.6725 98.1688 11.4458C99.6088 10.1925 101.489 9.56579 103.809 9.56579C105.169 9.56579 106.515 9.76579 107.849 10.1658C109.182 10.5391 110.275 11.0991 111.129 11.8458C112.009 12.5658 112.449 13.4058 112.449 14.3658V18.6458H111.729C111.275 15.9791 110.409 14.0725 109.129 12.9258C107.875 11.7525 106.102 11.1658 103.809 11.1658C102.582 11.1658 101.502 11.5391 100.569 12.2858C99.6355 13.0325 99.1688 14.0058 99.1688 15.2058C99.1688 16.2991 99.5021 17.2058 100.169 17.9258C100.862 18.6458 102.009 19.4858 103.609 20.4458L108.529 23.3658C110.342 24.4591 111.622 25.4725 112.369 26.4058C113.115 27.3391 113.489 28.5258 113.489 29.9658C113.489 32.2058 112.742 34.0058 111.249 35.3658C109.755 36.6991 107.729 37.3658 105.169 37.3658ZM129.457 37.4858C126.977 37.4858 124.79 36.8725 122.897 35.6458C121.03 34.4191 119.59 32.7391 118.577 30.6058C117.564 28.4725 117.057 26.0991 117.057 23.4858C117.057 20.8725 117.564 18.4991 118.577 16.3658C119.59 14.2325 121.03 12.5525 122.897 11.3258C124.79 10.0991 126.977 9.48579 129.457 9.48579C131.937 9.48579 134.11 10.0991 135.977 11.3258C137.87 12.5525 139.324 14.2325 140.337 16.3658C141.35 18.4991 141.857 20.8725 141.857 23.4858C141.857 26.0991 141.35 28.4725 140.337 30.6058C139.324 32.7391 137.87 34.4191 135.977 35.6458C134.11 36.8725 131.937 37.4858 129.457 37.4858ZM129.457 35.8858C131.19 35.8858 132.684 35.3791 133.937 34.3658C135.217 33.3525 136.19 31.9258 136.857 30.0858C137.524 28.2191 137.857 26.0191 137.857 23.4858C137.857 20.9525 137.524 18.7658 136.857 16.9258C136.19 15.0591 135.217 13.6191 133.937 12.6058C132.684 11.5925 131.19 11.0858 129.457 11.0858C127.724 11.0858 126.217 11.5925 124.937 12.6058C123.684 13.6191 122.724 15.0591 122.057 16.9258C121.39 18.7658 121.057 20.9525 121.057 23.4858C121.057 26.0191 121.39 28.2191 122.057 30.0858C122.724 31.9258 123.684 33.3525 124.937 34.3658C126.217 35.3791 127.724 35.8858 129.457 35.8858ZM157.853 37.0858C155.293 37.0858 153.267 36.6591 151.773 35.8058C150.28 34.9258 149.213 33.6325 148.573 31.9258C147.96 30.2191 147.653 28.0058 147.653 25.2858V15.0858C147.653 13.7258 147.467 12.7258 147.093 12.0858C146.72 11.4191 145.973 11.0858 144.853 11.0858H144.053V10.2858H147.653C148.64 10.2858 149.373 10.4191 149.853 10.6858C150.36 10.9258 150.72 11.3791 150.933 12.0458C151.147 12.7125 151.253 13.7258 151.253 15.0858V26.4858C151.253 29.4458 151.8 31.6858 152.893 33.2058C153.987 34.7258 155.8 35.4858 158.333 35.4858C160.36 35.4858 161.96 35.1258 163.133 34.4058C164.333 33.6858 165.187 32.5925 165.693 31.1258C166.2 29.6591 166.453 27.7125 166.453 25.2858V10.2858H168.053V25.2858C168.053 28.0591 167.76 30.2991 167.173 32.0058C166.587 33.6858 165.547 34.9525 164.053 35.8058C162.587 36.6591 160.52 37.0858 157.853 37.0858ZM172.114 35.8858L188.714 11.8858H179.114C175.781 11.8858 174.114 13.4191 174.114 16.4858H173.314V13.4858C173.314 11.3525 174.448 10.2858 176.714 10.2858H194.114L177.114 35.0858H193.514V36.6858H172.114V35.8858ZM219.667 36.8858C218.387 36.8858 217.121 36.5391 215.867 35.8458C214.614 35.1258 213.614 33.7391 212.867 31.6858L211.867 29.0858H200.667L197.467 36.6858H195.667L206.867 10.2858H208.067L216.867 31.6858C217.534 33.2325 218.161 34.2991 218.747 34.8858C219.334 35.4458 220.174 35.7791 221.267 35.8858V36.6858C220.787 36.8191 220.254 36.8858 219.667 36.8858ZM201.267 27.4858H211.067L206.267 15.8858L201.267 27.4858ZM240.258 37.4858C237.565 37.4858 235.485 36.8991 234.018 35.7258C232.578 34.5258 231.858 32.9791 231.858 31.0858C231.858 30.0458 232.111 29.1125 232.618 28.2858C233.125 27.4325 233.725 26.6991 234.418 26.0858C235.138 25.4725 236.191 24.6591 237.578 23.6458C236.698 22.8458 236.005 22.0991 235.498 21.4058C234.885 20.6325 234.391 19.7658 234.018 18.8058C233.645 17.8191 233.458 16.7925 233.458 15.7258C233.458 13.8058 234.098 12.2858 235.378 11.1658C236.685 10.0458 238.445 9.48579 240.658 9.48579C242.711 9.48579 244.325 10.0058 245.498 11.0458C246.671 12.0858 247.258 13.4325 247.258 15.0858C247.258 16.2591 247.005 17.3125 246.498 18.2458C245.991 19.1525 245.338 19.9658 244.538 20.6858C243.738 21.4058 242.698 22.2058 241.418 23.0858L249.458 31.8858C250.418 30.8458 251.298 29.7125 252.098 28.4858C252.498 27.8458 252.818 27.3125 253.058 26.8858L253.858 27.4858C253.565 28.0991 253.271 28.6591 252.978 29.1658C252.178 30.5258 251.285 31.7391 250.298 32.8058L253.858 36.6858H249.458L247.858 34.9658C245.618 36.6458 243.085 37.4858 240.258 37.4858ZM240.178 21.6858C241.378 20.6725 242.285 19.6991 242.898 18.7658C243.538 17.8058 243.858 16.7125 243.858 15.4858C243.858 13.9391 243.525 12.7925 242.858 12.0458C242.218 11.2725 241.485 10.8858 240.658 10.8858C239.725 10.8858 238.925 11.2725 238.258 12.0458C237.591 12.8191 237.258 14.0458 237.258 15.7258C237.258 16.6591 237.458 17.5658 237.858 18.4458C238.258 19.2991 238.698 20.0191 239.178 20.6058C239.658 21.1925 239.991 21.5525 240.178 21.6858ZM241.018 36.0858C243.258 36.0858 245.258 35.4058 247.018 34.0458L238.778 25.0458C237.765 25.9258 236.991 26.8058 236.458 27.6858C235.925 28.5658 235.658 29.5658 235.658 30.6858C235.658 34.2858 237.445 36.0858 241.018 36.0858ZM276.106 37.3658C274.64 37.3658 273.2 37.1658 271.786 36.7658C270.373 36.3658 269.213 35.7925 268.306 35.0458C267.426 34.2991 266.986 33.4458 266.986 32.4858V28.2058H267.706C268.16 30.8725 269.04 32.8058 270.346 34.0058C271.653 35.1791 273.453 35.7658 275.746 35.7658C277.186 35.7658 278.413 35.4058 279.426 34.6858C280.466 33.9658 280.986 32.9658 280.986 31.6858C280.986 30.5658 280.64 29.5925 279.946 28.7658C279.253 27.9391 278.133 27.0725 276.586 26.1658L271.666 23.2458C269.96 22.2325 268.746 21.2058 268.026 20.1658C267.333 19.1258 266.986 17.8591 266.986 16.3658C266.986 14.3125 267.693 12.6725 269.106 11.4458C270.546 10.1925 272.426 9.56579 274.746 9.56579C276.106 9.56579 277.453 9.76579 278.786 10.1658C280.12 10.5391 281.213 11.0991 282.066 11.8458C282.946 12.5658 283.386 13.4058 283.386 14.3658V18.6458H282.666C282.213 15.9791 281.346 14.0725 280.066 12.9258C278.813 11.7525 277.04 11.1658 274.746 11.1658C273.52 11.1658 272.44 11.5391 271.506 12.2858C270.573 13.0325 270.106 14.0058 270.106 15.2058C270.106 16.2991 270.44 17.2058 271.106 17.9258C271.8 18.6458 272.946 19.4858 274.546 20.4458L279.466 23.3658C281.28 24.4591 282.56 25.4725 283.306 26.4058C284.053 27.3391 284.426 28.5258 284.426 29.9658C284.426 32.2058 283.68 34.0058 282.186 35.3658C280.693 36.6991 278.666 37.3658 276.106 37.3658ZM293.314 36.6858C292.328 36.6858 291.581 36.5658 291.074 36.3258C290.594 36.0591 290.248 35.5925 290.034 34.9258C289.821 34.2591 289.714 33.2458 289.714 31.8858V10.2858H293.314V31.8858C293.314 33.2458 293.501 34.2591 293.874 34.9258C294.248 35.5658 294.994 35.8858 296.114 35.8858H296.914V36.6858H293.314ZM301.801 15.0858C301.801 13.7258 301.614 12.7258 301.241 12.0858C300.867 11.4191 300.121 11.0858 299.001 11.0858H298.201V10.2858H301.801C302.787 10.2858 303.521 10.4191 304.001 10.6858C304.507 10.9258 304.867 11.3791 305.081 12.0458C305.294 12.7125 305.401 13.7258 305.401 15.0858V35.0858H319.601V36.6858H301.801V15.0858ZM318.808 14.9658C318.142 13.4191 317.515 12.3658 316.928 11.8058C316.342 11.2191 315.502 10.8725 314.408 10.7658V9.96579C314.542 9.96579 314.742 9.95246 315.008 9.92579C315.248 9.89912 315.502 9.88579 315.768 9.88579C317.102 9.88579 318.382 10.2325 319.608 10.9258C320.835 11.5925 321.875 12.9391 322.728 14.9658L329.568 31.0858L331.928 25.6058C333.048 23.0191 335.195 17.9125 338.368 10.2858H340.288L328.808 37.0858H328.088L318.808 14.9658ZM362.675 36.8858C361.395 36.8858 360.128 36.5391 358.875 35.8458C357.622 35.1258 356.622 33.7391 355.875 31.6858L354.875 29.0858H343.675L340.475 36.6858H338.675L349.875 10.2858H351.075L359.875 31.6858C360.542 33.2325 361.168 34.2991 361.755 34.8858C362.342 35.4458 363.182 35.7791 364.275 35.8858V36.6858C363.795 36.8191 363.262 36.8858 362.675 36.8858ZM344.275 27.4858H354.075L349.275 15.8858L344.275 27.4858Z" fill="#A68555"/>
<path d="M101.171 73.176C99.9977 73.176 98.8757 73 97.805 72.648C96.7344 72.2813 95.891 71.812 95.275 71.24L96.089 69.524C96.6757 70.0373 97.4237 70.4627 98.333 70.8C99.2424 71.1373 100.188 71.306 101.171 71.306C102.066 71.306 102.792 71.2033 103.349 70.998C103.906 70.7927 104.317 70.514 104.581 70.162C104.845 69.7953 104.977 69.3847 104.977 68.93C104.977 68.402 104.801 67.9767 104.449 67.654C104.112 67.3313 103.664 67.0747 103.107 66.884C102.564 66.6787 101.963 66.5027 101.303 66.356C100.643 66.2093 99.9757 66.0407 99.301 65.85C98.641 65.6447 98.0324 65.388 97.475 65.08C96.9324 64.772 96.4924 64.3613 96.155 63.848C95.8177 63.32 95.649 62.6453 95.649 61.824C95.649 61.032 95.8544 60.306 96.265 59.646C96.6904 58.9713 97.3357 58.436 98.201 58.04C99.081 57.6293 100.196 57.424 101.545 57.424C102.44 57.424 103.327 57.5413 104.207 57.776C105.087 58.0107 105.85 58.348 106.495 58.788L105.769 60.548C105.109 60.108 104.412 59.7927 103.679 59.602C102.946 59.3967 102.234 59.294 101.545 59.294C100.68 59.294 99.9684 59.404 99.411 59.624C98.8537 59.844 98.443 60.1373 98.179 60.504C97.9297 60.8707 97.805 61.2813 97.805 61.736C97.805 62.2787 97.9737 62.7113 98.311 63.034C98.663 63.3567 99.1104 63.6133 99.653 63.804C100.21 63.9947 100.819 64.1707 101.479 64.332C102.139 64.4787 102.799 64.6473 103.459 64.838C104.134 65.0287 104.742 65.278 105.285 65.586C105.842 65.894 106.29 66.3047 106.627 66.818C106.964 67.3313 107.133 67.9913 107.133 68.798C107.133 69.5753 106.92 70.3013 106.495 70.976C106.07 71.636 105.41 72.1713 104.515 72.582C103.635 72.978 102.52 73.176 101.171 73.176ZM134.349 64.244H142.269V66.114H134.349V64.244ZM134.547 71.086H143.523V73H132.347V57.6H143.215V59.514H134.547V71.086ZM169.085 73V57.6H175.091C176.441 57.6 177.592 57.8127 178.545 58.238C179.499 58.6633 180.232 59.2793 180.745 60.086C181.259 60.8927 181.515 61.8533 181.515 62.968C181.515 64.0827 181.259 65.0433 180.745 65.85C180.232 66.642 179.499 67.2507 178.545 67.676C177.592 68.1013 176.441 68.314 175.091 68.314H170.295L171.285 67.302V73H169.085ZM179.381 73L175.465 67.412H177.819L181.779 73H179.381ZM171.285 67.522L170.295 66.444H175.025C176.433 66.444 177.497 66.1433 178.215 65.542C178.949 64.926 179.315 64.068 179.315 62.968C179.315 61.868 178.949 61.0173 178.215 60.416C177.497 59.8147 176.433 59.514 175.025 59.514H170.295L171.285 58.414V67.522ZM211.514 73L204.738 57.6H207.114L213.34 71.812H211.976L218.246 57.6H220.446L213.692 73H211.514ZM244.41 73V57.6H246.61V73H244.41ZM280.106 73.176C278.933 73.176 277.847 72.9853 276.85 72.604C275.867 72.208 275.009 71.658 274.276 70.954C273.557 70.2353 272.993 69.3993 272.582 68.446C272.171 67.4927 271.966 66.444 271.966 65.3C271.966 64.156 272.171 63.1073 272.582 62.154C272.993 61.2007 273.565 60.372 274.298 59.668C275.031 58.9493 275.889 58.3993 276.872 58.018C277.869 57.622 278.955 57.424 280.128 57.424C281.316 57.424 282.409 57.6293 283.406 58.04C284.418 58.436 285.276 59.03 285.98 59.822L284.55 61.208C283.963 60.592 283.303 60.1373 282.57 59.844C281.837 59.536 281.052 59.382 280.216 59.382C279.351 59.382 278.544 59.5287 277.796 59.822C277.063 60.1153 276.425 60.526 275.882 61.054C275.339 61.582 274.914 62.2127 274.606 62.946C274.313 63.6647 274.166 64.4493 274.166 65.3C274.166 66.1507 274.313 66.9427 274.606 67.676C274.914 68.3947 275.339 69.018 275.882 69.546C276.425 70.074 277.063 70.4847 277.796 70.778C278.544 71.0713 279.351 71.218 280.216 71.218C281.052 71.218 281.837 71.0713 282.57 70.778C283.303 70.47 283.963 70.0007 284.55 69.37L285.98 70.756C285.276 71.548 284.418 72.1493 283.406 72.56C282.409 72.9707 281.309 73.176 280.106 73.176ZM279.204 77.928C278.823 77.928 278.471 77.884 278.148 77.796C277.825 77.7227 277.525 77.6053 277.246 77.444L277.708 76.366C277.943 76.498 278.177 76.5933 278.412 76.652C278.661 76.7107 278.925 76.74 279.204 76.74C279.629 76.74 279.937 76.6593 280.128 76.498C280.333 76.3513 280.436 76.1387 280.436 75.86C280.436 75.596 280.333 75.3833 280.128 75.222C279.937 75.0753 279.622 75.002 279.182 75.002H278.588L279.138 72.846H280.348L280.018 74.1C280.649 74.1587 281.125 74.3567 281.448 74.694C281.771 75.0313 281.932 75.442 281.932 75.926C281.932 76.542 281.683 77.026 281.184 77.378C280.685 77.7447 280.025 77.928 279.204 77.928ZM317.748 73.176C316.575 73.176 315.482 72.978 314.47 72.582C313.473 72.186 312.608 71.636 311.874 70.932C311.141 70.2133 310.569 69.3773 310.158 68.424C309.748 67.4707 309.542 66.4293 309.542 65.3C309.542 64.1707 309.748 63.1293 310.158 62.176C310.569 61.2227 311.141 60.394 311.874 59.69C312.608 58.9713 313.473 58.414 314.47 58.018C315.468 57.622 316.56 57.424 317.748 57.424C318.922 57.424 320 57.622 320.982 58.018C321.98 58.3993 322.845 58.9493 323.578 59.668C324.326 60.372 324.898 61.2007 325.294 62.154C325.705 63.1073 325.91 64.156 325.91 65.3C325.91 66.444 325.705 67.4927 325.294 68.446C324.898 69.3993 324.326 70.2353 323.578 70.954C322.845 71.658 321.98 72.208 320.982 72.604C320 72.9853 318.922 73.176 317.748 73.176ZM317.748 71.218C318.599 71.218 319.384 71.0713 320.102 70.778C320.836 70.4847 321.466 70.074 321.994 69.546C322.537 69.0033 322.955 68.3727 323.248 67.654C323.556 66.9353 323.71 66.1507 323.71 65.3C323.71 64.4493 323.556 63.6647 323.248 62.946C322.955 62.2273 322.537 61.604 321.994 61.076C321.466 60.5333 320.836 60.1153 320.102 59.822C319.384 59.5287 318.599 59.382 317.748 59.382C316.883 59.382 316.084 59.5287 315.35 59.822C314.632 60.1153 314.001 60.5333 313.458 61.076C312.916 61.604 312.49 62.2273 312.182 62.946C311.889 63.6647 311.742 64.4493 311.742 65.3C311.742 66.1507 311.889 66.9353 312.182 67.654C312.49 68.3727 312.916 69.0033 313.458 69.546C314.001 70.074 314.632 70.4847 315.35 70.778C316.084 71.0713 316.883 71.218 317.748 71.218ZM355.761 73.176C354.588 73.176 353.466 73 352.395 72.648C351.324 72.2813 350.481 71.812 349.865 71.24L350.679 69.524C351.266 70.0373 352.014 70.4627 352.923 70.8C353.832 71.1373 354.778 71.306 355.761 71.306C356.656 71.306 357.382 71.2033 357.939 70.998C358.496 70.7927 358.907 70.514 359.171 70.162C359.435 69.7953 359.567 69.3847 359.567 68.93C359.567 68.402 359.391 67.9767 359.039 67.654C358.702 67.3313 358.254 67.0747 357.697 66.884C357.154 66.6787 356.553 66.5027 355.893 66.356C355.233 66.2093 354.566 66.0407 353.891 65.85C353.231 65.6447 352.622 65.388 352.065 65.08C351.522 64.772 351.082 64.3613 350.745 63.848C350.408 63.32 350.239 62.6453 350.239 61.824C350.239 61.032 350.444 60.306 350.855 59.646C351.28 58.9713 351.926 58.436 352.791 58.04C353.671 57.6293 354.786 57.424 356.135 57.424C357.03 57.424 357.917 57.5413 358.797 57.776C359.677 58.0107 360.44 58.348 361.085 58.788L360.359 60.548C359.699 60.108 359.002 59.7927 358.269 59.602C357.536 59.3967 356.824 59.294 356.135 59.294C355.27 59.294 354.558 59.404 354.001 59.624C353.444 59.844 353.033 60.1373 352.769 60.504C352.52 60.8707 352.395 61.2813 352.395 61.736C352.395 62.2787 352.564 62.7113 352.901 63.034C353.253 63.3567 353.7 63.6133 354.243 63.804C354.8 63.9947 355.409 64.1707 356.069 64.332C356.729 64.4787 357.389 64.6473 358.049 64.838C358.724 65.0287 359.332 65.278 359.875 65.586C360.432 65.894 360.88 66.3047 361.217 66.818C361.554 67.3313 361.723 67.9913 361.723 68.798C361.723 69.5753 361.51 70.3013 361.085 70.976C360.66 71.636 360 72.1713 359.105 72.582C358.225 72.978 357.11 73.176 355.761 73.176Z" fill="#A68555"/>
</svg>
