<svg width="20" height="20" viewBox="0 0 20 20" fill="none" xmlns="http://www.w3.org/2000/svg">
<path d="M17 3.61908C16.0832 2.74326 14.9912 2.04885 13.7876 1.57635C12.5841 1.10384 11.2931 0.862706 9.99 0.867C4.53 0.867 0.0800002 5.07551 0.0800002 10.2392C0.0800002 11.8942 0.54 13.502 1.4 14.9206L0 19.7816L5.25 18.4765C6.7 19.2237 8.33 19.6209 9.99 19.6209C15.45 19.6209 19.9 15.4124 19.9 10.2487C19.9 7.74247 18.87 5.3876 17 3.61908ZM9.99 18.032C8.51 18.032 7.06 17.6537 5.79 16.9444L5.49 16.7742L2.37 17.5497L3.2 14.6747L3 14.3815C2.17775 13.1397 1.74114 11.7044 1.74 10.2392C1.74 5.94558 5.44 2.44637 9.98 2.44637C12.18 2.44637 14.25 3.2597 15.8 4.73504C16.5675 5.45755 17.1757 6.31693 17.5894 7.26338C18.0031 8.20984 18.214 9.22453 18.21 10.2487C18.23 14.5423 14.53 18.032 9.99 18.032ZM14.51 12.2063C14.26 12.0928 13.04 11.5254 12.82 11.4403C12.59 11.3646 12.43 11.3268 12.26 11.5538C12.09 11.7902 11.62 12.3198 11.48 12.4711C11.34 12.6319 11.19 12.6508 10.94 12.5279C10.69 12.4144 9.89 12.159 8.95 11.3646C8.21 10.7404 7.72 9.9744 7.57 9.73796C7.43 9.50153 7.55 9.37858 7.68 9.25564C7.79 9.15161 7.93 8.98138 8.05 8.84897C8.17 8.71657 8.22 8.61254 8.3 8.46122C8.38 8.30045 8.34 8.16805 8.28 8.05456C8.22 7.94107 7.72 6.78728 7.52 6.31441C7.32 5.86046 7.11 5.91721 6.96 5.90775H6.48C6.31 5.90775 6.05 5.96449 5.82 6.20093C5.6 6.43736 4.96 7.0048 4.96 8.15859C4.96 9.31238 5.85 10.4283 5.97 10.5797C6.09 10.7404 7.72 13.1048 10.2 14.1167C10.79 14.3626 11.25 14.5045 11.61 14.6085C12.2 14.7882 12.74 14.7598 13.17 14.7031C13.65 14.6369 14.64 14.1356 14.84 13.5871C15.05 13.0386 15.05 12.5752 14.98 12.4711C14.91 12.3671 14.76 12.3198 14.51 12.2063Z" fill="#F8F8F8"/>
</svg>
