<svg width="58" height="60" viewBox="0 0 58 60" fill="none" xmlns="http://www.w3.org/2000/svg">
<rect width="57.7486" height="60" rx="2" fill="#EEEEEE"/>
<path d="M23.75 35.3578H34.25M23.75 39.7043H29M26 28.8381L32 23.0428M32 28.8381L26 23.0428M39.5 16.5231H18.5C18.1022 16.5231 17.7206 16.6757 17.4393 16.9474C17.158 17.2191 17 17.5876 17 17.9719V44.0507C17 44.435 17.158 44.8035 17.4393 45.0752C17.7206 45.3469 18.1022 45.4996 18.5 45.4996H39.5C39.8978 45.4996 40.2794 45.3469 40.5607 45.0752C40.842 44.8035 41 44.435 41 44.0507V17.9719C41 17.5876 40.842 17.2191 40.5607 16.9474C40.2794 16.6757 39.8978 16.5231 39.5 16.5231Z" stroke="#242E3F" stroke-width="3" stroke-linecap="square" stroke-linejoin="round"/>
</svg>
