<svg width="13" height="16" viewBox="0 0 13 16" fill="none" xmlns="http://www.w3.org/2000/svg">
<path d="M6.33333 8.37962C6.76875 8.37962 7.14163 8.23287 7.45196 7.93938C7.76176 7.64639 7.91667 7.294 7.91667 6.88221C7.91667 6.47042 7.76176 6.11778 7.45196 5.82429C7.14163 5.5313 6.76875 5.3848 6.33333 5.3848C5.89792 5.3848 5.52531 5.5313 5.2155 5.82429C4.90517 6.11778 4.75 6.47042 4.75 6.88221C4.75 7.294 4.90517 7.64639 5.2155 7.93938C5.52531 8.23287 5.89792 8.37962 6.33333 8.37962ZM6.33333 13.8826C7.94306 12.485 9.13715 11.2152 9.91562 10.0732C10.6941 8.93167 11.0833 7.91792 11.0833 7.03195C11.0833 5.67181 10.6247 4.55798 9.70742 3.69049C8.79067 2.82349 7.66597 2.38999 6.33333 2.38999C5.00069 2.38999 3.87574 2.82349 2.95846 3.69049C2.04171 4.55798 1.58333 5.67181 1.58333 7.03195C1.58333 7.91792 1.97257 8.93167 2.75104 10.0732C3.52951 11.2152 4.72361 12.485 6.33333 13.8826ZM6.33333 15.8667C4.20903 14.1571 2.62253 12.5691 1.57383 11.1027C0.524611 9.63669 0 8.27979 0 7.03195C0 5.16019 0.636764 3.66902 1.91029 2.55844C3.18329 1.44787 4.65764 0.892578 6.33333 0.892578C8.00903 0.892578 9.48338 1.44787 10.7564 2.55844C12.0299 3.66902 12.6667 5.16019 12.6667 7.03195C12.6667 8.27979 12.1423 9.63669 11.0936 11.1027C10.0444 12.5691 8.45764 14.1571 6.33333 15.8667Z" fill="#AF976F"/>
</svg>
