<svg width="58" height="60" viewBox="0 0 58 60" fill="none" xmlns="http://www.w3.org/2000/svg">
<rect x="0.229004" width="57.7486" height="60" rx="2" fill="#EEEEEE"/>
<path d="M29.5 15.53C33.2294 15.53 36.25 18.4116 36.25 21.9692C36.25 25.5269 33.2294 28.4085 29.5 28.4085C25.7706 28.4085 22.75 25.5269 22.75 21.9692C22.75 18.4116 25.7706 15.53 29.5 15.53ZM36.25 32.4974C36.25 34.2038 35.7775 38.18 32.5544 42.623L31.1875 34.8477L32.7737 31.8213C31.7275 31.7086 30.6306 31.6281 29.5 31.6281C28.3694 31.6281 27.2725 31.7086 26.2263 31.8213L27.8125 34.8477L26.4456 42.623C23.2225 38.18 22.75 34.2038 22.75 32.4974C18.7169 33.6242 16 35.6526 16 38.0673V44.5065H43V38.0673C43 35.6526 40.3 33.6242 36.25 32.4974Z" fill="#242E3F"/>
</svg>
