<svg width="58" height="60" viewBox="0 0 58 60" fill="none" xmlns="http://www.w3.org/2000/svg">
<rect x="0.229004" width="57.7486" height="60" rx="2" fill="#EEEEEE"/>
<path d="M34.75 27.1644C34.75 35.2931 22.25 35.2931 22.25 27.1644H25.375C25.375 31.2364 31.625 31.2364 31.625 27.1644M41 40.8901V45.4654H16V40.8901C16 36.8182 24.3281 34.7898 28.5 34.7898C32.6719 34.7898 41 36.8182 41 40.8901ZM38.0312 40.8901C38.0312 39.9141 33.1406 37.6875 28.5 37.6875C23.8594 37.6875 18.9688 39.9141 18.9688 40.8901V42.5677H38.0312M29.2812 16.4889C29.7188 16.4889 30.0625 16.8244 30.0625 17.2514V21.8267H31.625V18.014C32.7308 18.5135 33.6573 19.3258 34.2842 20.3456C34.9111 21.3654 35.2094 22.5456 35.1406 23.733C35.1406 23.733 36.2344 23.9465 36.3125 25.6394H20.6875C20.6875 23.9465 21.8594 23.733 21.8594 23.733C21.7905 22.5456 22.0889 21.3654 22.7158 20.3456C23.3427 19.3258 24.2692 18.5135 25.375 18.014V21.8267H26.9375V17.2514C26.9375 16.8244 27.2812 16.4889 27.7188 16.4889" fill="#242E3F"/>
</svg>
