<svg width="49" height="82" viewBox="0 0 49 82" fill="none" xmlns="http://www.w3.org/2000/svg">
<path fill-rule="evenodd" clip-rule="evenodd" d="M22.4807 6.54158C22.5187 6.48933 22.5594 6.43287 22.6029 6.3726C23.1495 5.6154 24.1302 4.25648 25.514 3.07797C27.2147 1.62972 29.4151 0.55505 31.9954 1.26916C32.27 1.34513 32.5534 1.18187 32.6286 0.904509C32.7038 0.627156 32.5422 0.340732 32.2677 0.264763C29.6652 -0.455476 27.4273 0.391969 25.6908 1.62551C25.779 1.52602 25.8688 1.42635 25.9603 1.3265L25.3912 1.84558C25.2044 1.98756 25.0238 2.13348 24.8498 2.28169C24.4047 2.66075 23.9956 3.0609 23.6269 3.45527L14.585 11.7041L14.5787 11.7096C14.4783 11.7262 14.3817 11.7728 14.3032 11.8499L14.3021 11.8509L3.5971 22.3788C2.23529 23.6377 0.682856 25.6136 0.172215 28.0719C-0.346646 30.5698 0.228563 33.4791 2.97764 36.5166L15.0781 49.8865L15.081 49.8899L23.1395 58.7937C24.9939 60.8428 27.1398 63.7252 27.7931 67.1457C28.4371 70.5171 27.6474 74.5015 23.4596 78.8349C23.4261 78.864 23.3923 78.8931 23.3583 78.922C21.6577 80.3703 19.4572 81.445 16.8769 80.7309C16.6024 80.6549 16.319 80.8182 16.2437 81.0955C16.1686 81.3729 16.3301 81.6593 16.6047 81.7352C19.6491 82.5778 22.1947 81.2749 24.0225 79.7184C24.0589 79.6874 24.095 79.6563 24.1309 79.6251C24.1399 79.6177 24.1489 79.61 24.1576 79.6019L24.163 79.5969C24.3511 79.4322 24.5324 79.264 24.7067 79.0946L35.491 69.13C35.8646 68.8141 36.2623 68.4194 36.6512 67.9559L45.7761 59.0589C48.101 56.9937 51.4499 51.3476 46.2458 45.284L34.3724 31.4491L26.4532 22.2218C23.5075 18.7896 19.633 13.266 22.4807 6.54158ZM10.9458 24.1851C10.424 21.9725 10.5063 19.5261 11.7717 16.9473C11.3914 19.3475 11.9593 22.2599 14.585 25.3193L26.4585 39.1541L34.3776 48.3815C36.9963 51.4327 40.3263 56.3696 39.0246 62.2348C39.1494 60.0066 38.41 57.5039 36.1249 54.9789L24.0245 41.609L24.0212 41.6054L15.9631 32.7018C14.1013 30.6448 11.7669 27.6661 10.9458 24.1851ZM4.31021 23.1307L10.6598 16.8862C9.47031 19.5313 9.3906 22.0833 9.94329 24.4265C10.8285 28.1797 13.3189 31.3233 15.2025 33.4046L23.2639 42.3118L23.2673 42.3155L35.3643 55.6818C37.9074 58.4915 38.3078 61.1657 37.835 63.3591C37.3547 65.5869 35.9586 67.3796 34.8217 68.3381L34.8093 68.3488L34.804 68.3537L27.5085 75.0946C29.0282 72.1938 29.2818 69.4441 28.805 66.9483C28.0965 63.2389 25.791 60.1803 23.9001 58.091L15.8387 49.1838L15.8356 49.1805L3.73823 35.8138C1.18619 32.994 0.737977 30.4181 1.1809 28.2858C1.63129 26.1175 3.02198 24.3205 4.29839 23.1421L4.31021 23.1307Z" fill="#A68555"/>
</svg>
