<svg width="59" height="60" viewBox="0 0 59 60" fill="none" xmlns="http://www.w3.org/2000/svg">
<rect x="0.682617" width="57.7486" height="60" rx="2" fill="#EEEEEE"/>
<path d="M16 15.821C16 15.327 16.2032 14.8532 16.5649 14.5038C16.9265 14.1545 17.4171 13.9583 17.9286 13.9583H37.2143C37.7258 13.9583 38.2163 14.1545 38.578 14.5038C38.9397 14.8532 39.1429 15.327 39.1429 15.821V27.9291C39.1429 28.1761 39.0413 28.413 38.8604 28.5876C38.6796 28.7623 38.4343 28.8604 38.1786 28.8604C37.9228 28.8604 37.6776 28.7623 37.4967 28.5876C37.3159 28.413 37.2143 28.1761 37.2143 27.9291V15.821H17.9286V41.8999H23.7143V37.2429C23.7143 36.9959 23.8159 36.759 23.9967 36.5843C24.1776 36.4097 24.4228 36.3115 24.6786 36.3115H27.5714V43.7626H17.9286C17.4171 43.7626 16.9265 43.5664 16.5649 43.217C16.2032 42.8677 16 42.3939 16 41.8999V15.821Z" fill="#242E3F"/>
<path d="M20.8215 17.6838C20.5657 17.6838 20.3204 17.782 20.1396 17.9566C19.9588 18.1313 19.8572 18.3682 19.8572 18.6152V20.478C19.8572 20.725 19.9588 20.9619 20.1396 21.1366C20.3204 21.3113 20.5657 21.4094 20.8215 21.4094H22.75C23.0058 21.4094 23.251 21.3113 23.4319 21.1366C23.6127 20.9619 23.7143 20.725 23.7143 20.478V18.6152C23.7143 18.3682 23.6127 18.1313 23.4319 17.9566C23.251 17.782 23.0058 17.6838 22.75 17.6838H20.8215ZM26.6072 17.6838C26.3514 17.6838 26.1062 17.782 25.9253 17.9566C25.7445 18.1313 25.6429 18.3682 25.6429 18.6152V20.478C25.6429 20.725 25.7445 20.9619 25.9253 21.1366C26.1062 21.3113 26.3514 21.4094 26.6072 21.4094H28.5357C28.7915 21.4094 29.0368 21.3113 29.2176 21.1366C29.3984 20.9619 29.5 20.725 29.5 20.478V18.6152C29.5 18.3682 29.3984 18.1313 29.2176 17.9566C29.0368 17.782 28.7915 17.6838 28.5357 17.6838H26.6072ZM32.3929 17.6838C32.1371 17.6838 31.8919 17.782 31.711 17.9566C31.5302 18.1313 31.4286 18.3682 31.4286 18.6152V20.478C31.4286 20.725 31.5302 20.9619 31.711 21.1366C31.8919 21.3113 32.1371 21.4094 32.3929 21.4094H34.3215C34.5772 21.4094 34.8225 21.3113 35.0033 21.1366C35.1842 20.9619 35.2857 20.725 35.2857 20.478V18.6152C35.2857 18.3682 35.1842 18.1313 35.0033 17.9566C34.8225 17.782 34.5772 17.6838 34.3215 17.6838H32.3929ZM20.8215 23.2722C20.5657 23.2722 20.3204 23.3703 20.1396 23.545C19.9588 23.7196 19.8572 23.9565 19.8572 24.2035V26.0663C19.8572 26.3133 19.9588 26.5502 20.1396 26.7249C20.3204 26.8996 20.5657 26.9977 20.8215 26.9977H22.75C23.0058 26.9977 23.251 26.8996 23.4319 26.7249C23.6127 26.5502 23.7143 26.3133 23.7143 26.0663V24.2035C23.7143 23.9565 23.6127 23.7196 23.4319 23.545C23.251 23.3703 23.0058 23.2722 22.75 23.2722H20.8215ZM26.6072 23.2722C26.3514 23.2722 26.1062 23.3703 25.9253 23.545C25.7445 23.7196 25.6429 23.9565 25.6429 24.2035V26.0663C25.6429 26.3133 25.7445 26.5502 25.9253 26.7249C26.1062 26.8996 26.3514 26.9977 26.6072 26.9977H28.5357C28.7915 26.9977 29.0368 26.8996 29.2176 26.7249C29.3984 26.5502 29.5 26.3133 29.5 26.0663V24.2035C29.5 23.9565 29.3984 23.7196 29.2176 23.545C29.0368 23.3703 28.7915 23.2722 28.5357 23.2722H26.6072ZM32.3929 23.2722C32.1371 23.2722 31.8919 23.3703 31.711 23.545C31.5302 23.7196 31.4286 23.9565 31.4286 24.2035V26.0663C31.4286 26.3133 31.5302 26.5502 31.711 26.7249C31.8919 26.8996 32.1371 26.9977 32.3929 26.9977H34.3215C34.5772 26.9977 34.8225 26.8996 35.0033 26.7249C35.1842 26.5502 35.2857 26.3133 35.2857 26.0663V24.2035C35.2857 23.9565 35.1842 23.7196 35.0033 23.545C34.8225 23.3703 34.5772 23.2722 34.3215 23.2722H32.3929ZM20.8215 28.8605C20.5657 28.8605 20.3204 28.9586 20.1396 29.1333C19.9588 29.3079 19.8572 29.5448 19.8572 29.7919V31.6546C19.8572 31.9017 19.9588 32.1386 20.1396 32.3132C20.3204 32.4879 20.5657 32.586 20.8215 32.586H22.75C23.0058 32.586 23.251 32.4879 23.4319 32.3132C23.6127 32.1386 23.7143 31.9017 23.7143 31.6546V29.7919C23.7143 29.5448 23.6127 29.3079 23.4319 29.1333C23.251 28.9586 23.0058 28.8605 22.75 28.8605H20.8215ZM26.6072 28.8605C26.3514 28.8605 26.1062 28.9586 25.9253 29.1333C25.7445 29.3079 25.6429 29.5448 25.6429 29.7919V31.6546C25.6429 31.9017 25.7445 32.1386 25.9253 32.3132C26.1062 32.4879 26.3514 32.586 26.6072 32.586H28.5357C28.7915 32.586 29.0368 32.4879 29.2176 32.3132C29.3984 32.1386 29.5 31.9017 29.5 31.6546V29.7919C29.5 29.5448 29.3984 29.3079 29.2176 29.1333C29.0368 28.9586 28.7915 28.8605 28.5357 28.8605H26.6072ZM36.25 43.7627C38.0402 43.7627 39.7571 43.0758 41.023 41.8531C42.2889 40.6304 43 38.9721 43 37.243C43 35.5138 42.2889 33.8555 41.023 32.6328C39.7571 31.4102 38.0402 30.7233 36.25 30.7233C34.4598 30.7233 32.7429 31.4102 31.4771 32.6328C30.2112 33.8555 29.5 35.5138 29.5 37.243C29.5 38.9721 30.2112 40.6304 31.4771 41.8531C32.7429 43.0758 34.4598 43.7627 36.25 43.7627ZM35.0042 34.7208L36.25 35.926L37.4959 34.7208C37.677 34.5459 37.9225 34.4476 38.1786 34.4476C38.4347 34.4476 38.6803 34.5459 38.8613 34.7208C39.0424 34.8957 39.1441 35.1329 39.1441 35.3802C39.1441 35.6275 39.0424 35.8647 38.8613 36.0396L37.6135 37.243L38.8613 38.4463C39.0424 38.6212 39.1441 38.8584 39.1441 39.1057C39.1441 39.3531 39.0424 39.5903 38.8613 39.7652C38.6803 39.9401 38.4347 40.0383 38.1786 40.0383C37.9225 40.0383 37.677 39.9401 37.4959 39.7652L36.25 38.5599L35.0042 39.7652C34.8231 39.9401 34.5775 40.0383 34.3215 40.0383C34.0654 40.0383 33.8198 39.9401 33.6387 39.7652C33.4577 39.5903 33.356 39.3531 33.356 39.1057C33.356 38.8584 33.4577 38.6212 33.6387 38.4463L34.8865 37.243L33.6387 36.0396C33.4577 35.8647 33.356 35.6275 33.356 35.3802C33.356 35.1329 33.4577 34.8957 33.6387 34.7208C33.8198 34.5459 34.0654 34.4476 34.3215 34.4476C34.5775 34.4476 34.8231 34.5459 35.0042 34.7208Z" fill="#242E3F"/>
</svg>
