<svg width="16" height="14" viewBox="0 0 16 14" fill="none" xmlns="http://www.w3.org/2000/svg">
<path d="M0 1.9245C0 1.48011 0.168571 1.05392 0.468629 0.739694C0.768687 0.425464 1.17565 0.248932 1.6 0.248932H14.4C14.8243 0.248932 15.2313 0.425464 15.5314 0.739694C15.8314 1.05392 16 1.48011 16 1.9245V11.9779C16 12.4223 15.8314 12.8485 15.5314 13.1627C15.2313 13.4769 14.8243 13.6535 14.4 13.6535H1.6C1.17565 13.6535 0.768687 13.4769 0.468629 13.1627C0.168571 12.8485 0 12.4223 0 11.9779V1.9245ZM2.8152 1.9245L8 6.67556L13.1848 1.9245H2.8152ZM14.4 3.03791L8.5272 8.41983C8.38132 8.55369 8.19396 8.62748 8 8.62748C7.80604 8.62748 7.61869 8.55369 7.4728 8.41983L1.6 3.03791V11.9779H14.4V3.03791Z" fill="#AF976F"/>
</svg>
