<svg width="59" height="60" viewBox="0 0 59 60" fill="none" xmlns="http://www.w3.org/2000/svg">
<rect x="0.645508" width="57.7486" height="60" rx="2" fill="#EEEEEE"/>
<rect x="0.645508" width="57.7486" height="60" rx="2" fill="#EEEEEE"/>
<path d="M34.5 14H24.5C23.125 14 22 15.0866 22 16.4147V35.7324C22 37.0605 23.125 38.1471 24.5 38.1471H39.5C40.875 38.1471 42 37.0605 42 35.7324V21.2441L34.5 14ZM39.5 35.7324H24.5V16.4147H33.25V22.4515H39.5V35.7324ZM19.5 18.8294V40.5618H39.5V42.9765H19.5C18.125 42.9765 17 41.8899 17 40.5618V18.8294H19.5ZM27 26.0735V28.4882H37V26.0735H27ZM27 30.9029V33.3177H33.25V30.9029H27Z" fill="#242E3F"/>
</svg>
