<svg width="58" height="60" viewBox="0 0 58 60" fill="none" xmlns="http://www.w3.org/2000/svg">
<rect x="0.229004" width="57.7486" height="60" rx="2" fill="#EEEEEE"/>
<path d="M43 38.2554L35.5641 45.4996L30.359 40.4287L32.5897 38.2554L35.5641 41.1531L40.7692 36.0822L43 38.2554ZM16.9744 16.5231C16.1855 16.5231 15.429 16.8284 14.8712 17.3718C14.3134 17.9152 14 18.6522 14 19.4207V42.6019C14 44.2101 15.3236 45.4996 16.9744 45.4996H28.5892C28.0538 44.6013 27.6821 43.6161 27.5036 42.6019H16.9744V19.4207H27.3846V26.6648H34.8205V32.576C35.3113 32.5036 35.8169 32.4601 36.3077 32.4601C36.8133 32.4601 37.3041 32.5036 37.7949 32.576V25.216L28.8718 16.5231M19.9487 31.0113V33.909H31.8462V31.0113M19.9487 36.8066V39.7043H27.3846V36.8066H19.9487Z" fill="#242E3F"/>
</svg>
