<svg width="15" height="16" viewBox="0 0 15 16" fill="none" xmlns="http://www.w3.org/2000/svg">
<path d="M10.6909 15.4668C4.79644 15.4668 0 10.5211 0 4.44322C0.00029378 3.35622 0.384797 2.3066 1.08153 1.49085C1.77826 0.675096 2.73944 0.149145 3.78515 0.0114592C4.09582 -0.0286034 4.41068 0.0370163 4.68188 0.198344C4.95307 0.359672 5.16577 0.607887 5.28765 0.90526L6.73958 4.39108C6.83546 4.61711 6.8751 4.86424 6.85492 5.11006C6.83473 5.35588 6.75536 5.59262 6.624 5.79882L5.51158 7.54173C6.00439 8.50202 6.76738 9.28615 7.70032 9.79113L9.36896 8.64408C9.56966 8.50741 9.80014 8.4243 10.0397 8.40219C10.2793 8.38009 10.5204 8.4197 10.7414 8.51746L14.1221 10.0146C14.4105 10.1402 14.6512 10.3596 14.8076 10.6392C14.9641 10.9188 15.0277 11.2435 14.9889 11.5638C14.8554 12.6421 14.3453 13.6332 13.5541 14.3516C12.763 15.07 11.7451 15.4665 10.6909 15.4668ZM3.78515 1.82141C3.20407 1.95081 2.68353 2.28159 2.31025 2.75865C1.93696 3.23571 1.73347 3.83025 1.73365 4.44322C1.73557 6.89214 2.67989 9.24019 4.35927 10.9718C6.03866 12.7035 8.31586 13.6772 10.6909 13.6792C11.2853 13.6794 11.8619 13.4695 12.3246 13.0846C12.7873 12.6997 13.1081 12.163 13.2336 11.5638L10.1997 10.2231L8.5238 11.3776C8.31536 11.5198 8.07486 11.6041 7.82556 11.6224C7.57626 11.6407 7.3266 11.5923 7.10076 11.4819C5.69863 10.7817 4.56438 9.61744 3.87905 8.17484C3.76884 7.94317 3.71951 7.68573 3.73599 7.42825C3.75247 7.17076 3.83418 6.92225 3.97296 6.70751L5.08539 4.94971L3.78515 1.82141Z" fill="#B69A71"/>
</svg>
