<svg width="58" height="60" viewBox="0 0 58 60" fill="none" xmlns="http://www.w3.org/2000/svg">
<rect width="57.7486" height="60" rx="2" fill="#EEEEEE"/>
<path d="M20.8334 18.6546C20.8334 18.4091 20.9343 18.1737 21.1141 18.0001C21.2938 17.8265 21.5375 17.729 21.7917 17.729H23.7084C23.9625 17.729 24.2063 17.8265 24.386 18.0001C24.5657 18.1737 24.6667 18.4091 24.6667 18.6546V20.5059C24.6667 20.7514 24.5657 20.9869 24.386 21.1604C24.2063 21.334 23.9625 21.4316 23.7084 21.4316H21.7917C21.5375 21.4316 21.2938 21.334 21.1141 21.1604C20.9343 20.9869 20.8334 20.7514 20.8334 20.5059V18.6546ZM26.5834 18.6546C26.5834 18.4091 26.6843 18.1737 26.8641 18.0001C27.0438 17.8265 27.2875 17.729 27.5417 17.729H29.4584C29.7125 17.729 29.9563 17.8265 30.136 18.0001C30.3157 18.1737 30.4167 18.4091 30.4167 18.6546V20.5059C30.4167 20.7514 30.3157 20.9869 30.136 21.1604C29.9563 21.334 29.7125 21.4316 29.4584 21.4316H27.5417C27.2875 21.4316 27.0438 21.334 26.8641 21.1604C26.6843 20.9869 26.5834 20.7514 26.5834 20.5059V18.6546ZM33.2917 17.729C33.0375 17.729 32.7938 17.8265 32.6141 18.0001C32.4343 18.1737 32.3334 18.4091 32.3334 18.6546V20.5059C32.3334 20.7514 32.4343 20.9869 32.6141 21.1604C32.7938 21.334 33.0375 21.4316 33.2917 21.4316H35.2084C35.4625 21.4316 35.7063 21.334 35.886 21.1604C36.0657 20.9869 36.1667 20.7514 36.1667 20.5059V18.6546C36.1667 18.4091 36.0657 18.1737 35.886 18.0001C35.7063 17.8265 35.4625 17.729 35.2084 17.729H33.2917ZM20.8334 24.2085C20.8334 23.963 20.9343 23.7275 21.1141 23.5539C21.2938 23.3804 21.5375 23.2828 21.7917 23.2828H23.7084C23.9625 23.2828 24.2063 23.3804 24.386 23.5539C24.5657 23.7275 24.6667 23.963 24.6667 24.2085V26.0597C24.6667 26.3052 24.5657 26.5407 24.386 26.7143C24.2063 26.8879 23.9625 26.9854 23.7084 26.9854H21.7917C21.5375 26.9854 21.2938 26.8879 21.1141 26.7143C20.9343 26.5407 20.8334 26.3052 20.8334 26.0597V24.2085ZM27.5417 23.2828C27.2875 23.2828 27.0438 23.3804 26.8641 23.5539C26.6843 23.7275 26.5834 23.963 26.5834 24.2085V26.0597C26.5834 26.3052 26.6843 26.5407 26.8641 26.7143C27.0438 26.8879 27.2875 26.9854 27.5417 26.9854H29.4584C29.7125 26.9854 29.9563 26.8879 30.136 26.7143C30.3157 26.5407 30.4167 26.3052 30.4167 26.0597V24.2085C30.4167 23.963 30.3157 23.7275 30.136 23.5539C29.9563 23.3804 29.7125 23.2828 29.4584 23.2828H27.5417ZM32.3334 24.2085C32.3334 23.963 32.4343 23.7275 32.6141 23.5539C32.7938 23.3804 33.0375 23.2828 33.2917 23.2828H35.2084C35.4625 23.2828 35.7063 23.3804 35.886 23.5539C36.0657 23.7275 36.1667 23.963 36.1667 24.2085V26.0597C36.1667 26.3052 36.0657 26.5407 35.886 26.7143C35.7063 26.8879 35.4625 26.9854 35.2084 26.9854H33.2917C33.0375 26.9854 32.7938 26.8879 32.6141 26.7143C32.4343 26.5407 32.3334 26.3052 32.3334 26.0597V24.2085ZM21.7917 28.8367C21.5375 28.8367 21.2938 28.9342 21.1141 29.1078C20.9343 29.2814 20.8334 29.5168 20.8334 29.7623V31.6136C20.8334 31.8591 20.9343 32.0945 21.1141 32.2681C21.2938 32.4417 21.5375 32.5392 21.7917 32.5392H23.7084C23.9625 32.5392 24.2063 32.4417 24.386 32.2681C24.5657 32.0945 24.6667 31.8591 24.6667 31.6136V29.7623C24.6667 29.5168 24.5657 29.2814 24.386 29.1078C24.2063 28.9342 23.9625 28.8367 23.7084 28.8367H21.7917ZM26.5834 29.7623C26.5834 29.5168 26.6843 29.2814 26.8641 29.1078C27.0438 28.9342 27.2875 28.8367 27.5417 28.8367H29.4584C29.7125 28.8367 29.9563 28.9342 30.136 29.1078C30.3157 29.2814 30.4167 29.5168 30.4167 29.7623V31.6136C30.4167 31.8591 30.3157 32.0945 30.136 32.2681C29.9563 32.4417 29.7125 32.5392 29.4584 32.5392H27.5417C27.2875 32.5392 27.0438 32.4417 26.8641 32.2681C26.6843 32.0945 26.5834 31.8591 26.5834 31.6136V29.7623ZM33.2917 28.8367C33.0375 28.8367 32.7938 28.9342 32.6141 29.1078C32.4343 29.2814 32.3334 29.5168 32.3334 29.7623V31.6136C32.3334 31.8591 32.4343 32.0945 32.6141 32.2681C32.7938 32.4417 33.0375 32.5392 33.2917 32.5392H35.2084C35.4625 32.5392 35.7063 32.4417 35.886 32.2681C36.0657 32.0945 36.1667 31.8591 36.1667 31.6136V29.7623C36.1667 29.5168 36.0657 29.2814 35.886 29.1078C35.7063 28.9342 35.4625 28.8367 35.2084 28.8367H33.2917Z" fill="#242E3F"/>
<path d="M17 15.8778C17 15.3868 17.2019 14.9159 17.5614 14.5687C17.9208 14.2215 18.4083 14.0265 18.9167 14.0265H38.0833C38.5917 14.0265 39.0792 14.2215 39.4386 14.5687C39.7981 14.9159 40 15.3868 40 15.8778V41.7956C40 42.2866 39.7981 42.7575 39.4386 43.1047C39.0792 43.4518 38.5917 43.6469 38.0833 43.6469H18.9167C18.4083 43.6469 17.9208 43.4518 17.5614 43.1047C17.2019 42.7575 17 42.2866 17 41.7956V15.8778ZM38.0833 15.8778H18.9167V41.7956H24.6667V37.1674C24.6667 36.9219 24.7676 36.6865 24.9474 36.5129C25.1271 36.3393 25.3708 36.2418 25.625 36.2418H31.375C31.6292 36.2418 31.8729 36.3393 32.0526 36.5129C32.2324 36.6865 32.3333 36.9219 32.3333 37.1674V41.7956H38.0833V15.8778Z" fill="#242E3F"/>
</svg>
