<svg width="58" height="60" viewBox="0 0 58 60" fill="none" xmlns="http://www.w3.org/2000/svg">
<rect width="57.7486" height="60" rx="2" fill="#EEEEEE"/>
<path d="M35.1429 15.5641C31.0686 15.5641 27.7619 18.7303 27.7619 22.6315C27.7619 26.5327 31.0686 29.699 35.1429 29.699C39.2171 29.699 42.5238 26.5327 42.5238 22.6315C42.5238 18.7303 39.2171 15.5641 35.1429 15.5641ZM35.1429 26.872C32.6924 26.872 30.7143 24.9779 30.7143 22.6315C30.7143 20.2851 32.6924 18.3911 35.1429 18.3911C37.5933 18.3911 39.5714 20.2851 39.5714 22.6315C39.5714 24.9779 37.5933 26.872 35.1429 26.872ZM39.5714 35.3529H36.619C36.619 33.6567 35.5119 32.1302 33.8586 31.5365L24.7652 28.2855H13V43.8338H21.8571V41.7984L32.1905 44.5406L44 41.0069V39.5934C44 37.247 42.0219 35.3529 39.5714 35.3529ZM18.9048 41.0069H15.9524V31.1124H18.9048V41.0069ZM32.1462 41.5864L21.8571 38.8866V31.1124H24.2338L32.8252 34.1797C33.3271 34.3635 33.6667 34.8299 33.6667 35.3529C33.6667 35.3529 30.7143 35.2822 30.2714 35.1409L26.7581 34.0242L25.8281 36.7099L29.3414 37.8265C30.0943 38.0668 30.8767 38.1799 31.6738 38.1799H39.5714C40.1471 38.1799 40.6638 38.5191 40.9 38.9856L32.1462 41.5864Z" fill="#242E3F"/>
</svg>
