<svg width="58" height="60" viewBox="0 0 58 60" fill="none" xmlns="http://www.w3.org/2000/svg">
<rect x="0.229004" width="57.7486" height="60" rx="2" fill="#EEEEEE"/>
<path d="M42.4167 16.9242H16.5833C15.1754 16.9736 14.0517 18.0473 14 19.3926V36.6711C14.0517 38.0164 15.1754 39.0901 16.5833 39.1395H42.4167C43.8246 39.0901 44.9483 38.0164 45 36.6711V19.3926C44.9762 18.7451 44.6964 18.1304 44.217 17.6723C43.7376 17.2143 43.0942 16.9469 42.4167 16.9242ZM42.4167 36.6711H16.5833V19.3926H42.4167V36.6711ZM32.0833 34.2028V32.66C32.0833 30.6113 27.7692 29.5746 25.625 29.5746C23.4808 29.5746 19.1667 30.6113 19.1667 32.66V34.2028H32.0833ZM25.625 21.8609C24.7686 21.8609 23.9472 22.186 23.3416 22.7646C22.736 23.3433 22.3958 24.1281 22.3958 24.9464C22.3958 25.3516 22.4794 25.7528 22.6416 26.1271C22.8039 26.5015 23.0418 26.8416 23.3416 27.1281C23.9472 27.7068 24.7686 28.0318 25.625 28.0318C26.0491 28.0318 26.469 27.952 26.8607 27.797C27.2525 27.6419 27.6085 27.4146 27.9084 27.1281C28.2082 26.8416 28.4461 26.5015 28.6084 26.1271C28.7706 25.7528 28.8542 25.3516 28.8542 24.9464C28.8542 24.5412 28.7706 24.14 28.6084 23.7656C28.4461 23.3913 28.2082 23.0511 27.9084 22.7646C27.6085 22.4781 27.2525 22.2509 26.8607 22.0958C26.469 21.9407 26.0491 21.8609 25.625 21.8609ZM32.0833 21.8609V23.0951H39.8333V21.8609H32.0833ZM32.0833 24.3293V25.5635H39.8333V24.3293H32.0833ZM32.0833 26.7977V28.0318H37.25V26.7977H32.0833Z" fill="#242E3F"/>
</svg>
